<svg width="44" height="44" viewBox="0 0 44 44" fill="none" xmlns="http://www.w3.org/2000/svg">
<g clip-path="url(#clip0_130_806)">
<path d="M18.4596 20.0492C18.8292 19.8259 19.0096 19.4217 19.0096 18.8546C19.0096 18.2188 18.7687 17.8063 18.2792 17.6001C17.8579 17.4626 17.3255 17.385 16.6721 17.385H13.7158V20.3842H17.0158C17.6087 20.393 18.0812 20.2808 18.4596 20.0492Z" fill="black"/>
<path d="M29.5712 21.0117C29.1499 20.6509 28.6257 20.4705 28.007 20.4705C27.3365 20.4705 26.8124 20.6597 26.4345 21.0463C26.0649 21.433 25.8328 21.9489 25.73 22.6017H30.2587C30.2246 21.9054 29.9837 21.3813 29.5712 21.0117Z" fill="black"/>
<path d="M40.5625 0H3.4375C1.53835 0 0 1.53835 0 3.4375V40.5625C0 42.4617 1.53835 44 3.4375 44H40.5625C42.4617 44 44 42.4617 44 40.5625V3.4375C44 1.53835 42.4617 0 40.5625 0ZM25.0597 15.6662H30.8864V17.3591H25.0597V15.6662ZM21.5446 26.692C21.2866 27.1133 20.9688 27.4741 20.5821 27.7574C20.1525 28.0924 19.6367 28.3162 19.0438 28.4449C18.4508 28.5653 17.8151 28.6253 17.1187 28.6253H11V15.0298H17.5742C19.233 15.0557 20.41 15.5369 21.0975 16.4824C21.5099 17.0583 21.7162 17.7545 21.7162 18.5619C21.7162 19.3693 21.5099 20.0574 21.0886 20.5645C20.8566 20.8483 20.504 21.1057 20.0486 21.3378C20.7449 21.5957 21.269 21.9912 21.621 22.5412C21.973 23.0912 22.154 23.7528 22.154 24.535C22.154 25.317 21.9478 26.0474 21.5441 26.692H21.5446ZM33 24.3375H25.6778C25.7207 25.3429 26.0645 26.0562 26.7261 26.4599C27.1299 26.7091 27.6111 26.8378 28.1787 26.8378C28.7463 26.8378 29.2617 26.6832 29.6395 26.3736C29.8458 26.2102 30.0261 25.9781 30.1807 25.6773H32.8619C32.7932 26.2702 32.4665 26.8807 31.8907 27.4994C30.9881 28.479 29.7335 28.9691 28.1094 28.9691C26.7685 28.9691 25.5915 28.5565 24.5685 27.7316C23.5461 26.9065 23.0302 25.5656 23.0302 23.7099C23.0302 21.9653 23.4944 20.6332 24.4139 19.7054C25.3418 18.777 26.5364 18.3134 28.006 18.3134C28.8827 18.3134 29.673 18.4679 30.3693 18.7858C31.0739 19.0954 31.6497 19.5938 32.1051 20.2724C32.5177 20.8653 32.7839 21.5616 32.9043 22.352C32.9818 22.8074 33.0077 23.469 32.9989 24.3369L33 24.3375Z" fill="black"/>
<path d="M18.4162 22.8678C18.0895 22.7215 17.6429 22.6445 17.0582 22.6357H13.7065V26.2624H17.0153C17.6082 26.2624 18.0636 26.1849 18.3903 26.0221C18.992 25.7212 19.2841 25.163 19.2841 24.3292C19.2841 23.6246 18.992 23.1346 18.4162 22.8684V22.8678Z" fill="black"/>
</g>
<defs>
<clipPath id="clip0_130_806">
<rect width="44" height="44" fill="white"/>
</clipPath>
</defs>
</svg>
