<svg width="251" height="209" viewBox="0 0 251 209" fill="none" xmlns="http://www.w3.org/2000/svg">
<path d="M62.2553 0H187.484C188.207 0.85483 188.937 2.17069 189.525 3.14161C190.658 5.00656 191.779 6.87822 192.888 8.75651L202.324 24.4569L234.16 77.4293L244.706 94.9963C245.938 97.0803 247.185 99.1564 248.445 101.224C248.833 101.862 249.644 103.296 250.058 103.861V103.953C249.449 104.771 247.838 107.692 247.26 108.676L242.24 117.041L226.333 143.538L201.217 185.355L192.346 200.119C190.788 202.715 188.997 205.509 187.55 208.132H62.2638C62.0778 207.685 60.7832 205.647 60.4585 205.105L55.5875 197.019L37.3002 166.588L12.5764 125.417L4.22255 111.51C3.00386 109.492 1.31217 106.453 0 104.581V103.25C0.803072 102.388 3.7524 97.1667 4.60057 95.7365L13.4571 81.0299L45.7263 27.3224L55.6512 10.8139C57.4484 7.78725 60.2629 2.75189 62.2553 0Z" fill="#3858A7"/>
</svg>
