<svg width="251" height="209" viewBox="0 0 251 209" fill="none" xmlns="http://www.w3.org/2000/svg">
<path d="M199.503 0H207.939C211.315 17.6266 215.11 35.5284 218.669 53.1355L240.255 159.905C241.196 164.554 249.529 207.013 250.058 207.895V208.132H0V206.602C0.437337 205.919 1.88512 199.838 2.23369 198.515L9.30281 171.332L39.0393 57.2246L48.6502 20.3427C49.7233 16.2796 50.7353 11.9298 51.8818 7.92293C53.7864 7.97176 55.4498 7.76356 57.3379 7.57043C58.8342 7.41738 60.4525 7.59086 61.9674 7.47507C63.1864 7.3819 64.4116 7.17515 65.6286 7.12551L105.49 5.0362L153.357 2.53036L169.471 1.69775C171.93 1.55546 174.083 1.7476 176.619 1.33174C178.267 1.07549 180.186 1.41931 181.802 1.19979C185.649 0.677781 189.448 0.992937 193.288 0.402028C194.46 0.221447 198.761 0.672426 199.503 0Z" fill="#1BAE8C"/>
</svg>
