<svg width="44" height="44" viewBox="0 0 44 44" fill="none" xmlns="http://www.w3.org/2000/svg">
<path d="M15.9842 22C15.9842 20.8857 16.0639 19.8308 16.2036 18.8381C14.1604 18.2897 12.4686 17.5159 11.1607 16.7717C10.3967 18.353 9.96826 20.1262 9.96826 22C9.96826 23.8739 10.3967 25.6471 11.1607 27.2283C12.4691 26.4842 14.1609 25.7109 16.2036 25.1625C16.0639 24.1698 15.9842 23.1149 15.9842 22.0006V22Z" fill="black"/>
<path d="M27.3294 16.4709C29.0421 15.9957 30.4666 15.3461 31.5792 14.7197C29.894 12.5054 27.4581 10.8928 24.6509 10.2614C24.9149 10.6744 25.1915 11.1408 25.4676 11.6578C26.1557 12.9481 26.8426 14.5607 27.3294 16.4703V16.4709Z" fill="black"/>
<path d="M18.532 11.6583C18.8081 11.1407 19.0842 10.6749 19.3488 10.2618C16.5416 10.8932 14.1062 12.5053 12.4204 14.7201C13.5331 15.3466 14.9576 15.9961 16.6703 16.4713C17.157 14.5617 17.844 12.9491 18.532 11.6588V11.6583Z" fill="black"/>
<path d="M21.9998 19.5937C20.7826 19.5937 19.6364 19.4986 18.5645 19.3341C18.4534 20.174 18.3901 21.0633 18.3901 22C18.3901 22.9366 18.4534 23.8265 18.5645 24.6658C19.6364 24.5014 20.7826 24.4062 21.9998 24.4062C23.2169 24.4062 24.3631 24.5014 25.4351 24.6658C25.5462 23.826 25.6094 22.9366 25.6094 22C25.6094 21.0633 25.5462 20.174 25.4351 19.3341C24.3631 19.4986 23.2169 19.5937 21.9998 19.5937Z" fill="black"/>
<path d="M22.0002 17.1875C23.0523 17.1875 24.044 17.1078 24.9735 16.9703C24.5417 15.3115 23.9428 13.9117 23.3449 12.7908C22.8653 11.8921 22.3879 11.1744 22.0002 10.6497C21.6124 11.1744 21.135 11.8921 20.6554 12.7908C20.0576 13.9117 19.4586 15.3115 19.0269 16.9703C19.9564 17.1083 20.948 17.1875 22.0002 17.1875Z" fill="black"/>
<path d="M22.0002 26.8125C20.948 26.8125 19.9558 26.8922 19.0269 27.0303C19.4586 28.6891 20.0576 30.0889 20.6554 31.2098C21.135 32.1085 21.6124 32.8262 22.0002 33.3515C22.3879 32.8262 22.8653 32.109 23.3449 31.2098C23.9428 30.0889 24.5417 28.6891 24.9735 27.0303C24.0445 26.8922 23.0523 26.8131 22.0002 26.8131V26.8125Z" fill="black"/>
<path d="M40.5625 0H3.4375C1.53835 0 0 1.53835 0 3.4375V40.5625C0 42.4617 1.53835 44 3.4375 44H40.5625C42.4617 44 44 42.4617 44 40.5625V3.4375C44 1.53835 42.4617 0 40.5625 0ZM22 36.4375C14.0261 36.4375 7.5625 29.9734 7.5625 22C7.5625 14.0266 14.0261 7.5625 22 7.5625C29.9739 7.5625 36.4375 14.0266 36.4375 22C36.4375 29.9734 29.9734 36.4375 22 36.4375Z" fill="black"/>
<path d="M28.0158 22C28.0158 23.1143 27.9361 24.1692 27.7964 25.162C29.8391 25.7109 31.5309 26.4842 32.8393 27.2283C33.6033 25.6471 34.0317 23.8739 34.0317 22C34.0317 20.1262 33.6033 18.353 32.8393 16.7717C31.5309 17.5159 29.8391 18.2892 27.7964 18.8381C27.9361 19.8308 28.0158 20.8857 28.0158 22Z" fill="black"/>
<path d="M16.6703 27.5292C14.9576 28.0044 13.5325 28.6539 12.4204 29.2804C14.1062 31.4947 16.5416 33.1073 19.3488 33.7387C19.0848 33.3256 18.8081 32.8592 18.532 32.3422C17.844 31.0519 17.157 29.4393 16.6703 27.5297V27.5292Z" fill="black"/>
<path d="M25.4676 32.3416C25.1915 32.8592 24.9149 33.325 24.6509 33.7381C27.4581 33.1067 29.894 31.4941 31.5792 29.2798C30.4666 28.6533 29.0421 28.0043 27.3294 27.5286C26.8426 29.4382 26.1557 31.0508 25.4676 32.3411V32.3416Z" fill="black"/>
</svg>
