<svg width="44" height="45" viewBox="0 0 44 45" fill="none" xmlns="http://www.w3.org/2000/svg">
<g clip-path="url(#clip0_130_824)">
<path d="M40.4789 0.00401736H3.7675C3.2945 -0.0185326 2.8215 0.0540674 2.376 0.216317C1.9305 0.379117 1.52075 0.629367 1.17095 0.952217C0.82115 1.27507 0.53735 1.66502 0.3366 2.09952C0.1353 2.53402 0.0209 3.00372 0 3.48277V40.7178C0.0275 41.7199 0.4334 42.6736 1.1341 43.3825C1.8348 44.0915 2.77695 44.5023 3.7675 44.5304H40.4789C41.4414 44.4869 42.3494 44.0634 43.0073 43.3506C43.6651 42.6378 44.0209 41.6929 43.9983 40.7178V3.48277C44.006 3.01637 43.9202 2.55382 43.7448 2.12262C43.5699 1.69142 43.3092 1.30092 42.9798 0.975317C42.6503 0.649717 42.2587 0.395617 41.8286 0.228417C41.3985 0.0612174 40.9392 -0.0146826 40.4789 0.00401736ZM13.7495 37.1279H7.34195V17.2861H13.7495V37.1279ZM10.6975 14.2804C10.2503 14.2963 9.80485 14.2182 9.38905 14.0516C8.97325 13.8849 8.59595 13.6325 8.2808 13.3113C7.96565 12.9901 7.7198 12.6062 7.5581 12.1838C7.3964 11.7614 7.32325 11.3098 7.3425 10.8577C7.3227 10.4007 7.3975 9.94417 7.5625 9.51792C7.7275 9.09167 7.9783 8.70502 8.2995 8.38272C8.6207 8.06042 9.0046 7.80962 9.427 7.64627C9.8494 7.48292 10.301 7.41087 10.7525 7.43452C11.1996 7.41857 11.6451 7.49667 12.0609 7.66332C12.4767 7.82997 12.854 8.08242 13.1692 8.40362C13.4844 8.72482 13.7302 9.10872 13.8919 9.53112C14.0536 9.95352 14.1267 10.4051 14.1075 10.8572C14.1273 11.3142 14.0525 11.7707 13.8875 12.197C13.7225 12.6232 13.4717 13.0099 13.1505 13.3322C12.8293 13.6545 12.4454 13.9053 12.023 14.0686C11.6006 14.232 11.149 14.304 10.6975 14.2804ZM36.6839 37.1279H30.2489V26.2748C30.2489 23.6865 29.3414 21.9056 27.0589 21.9056C26.35 21.9116 25.6602 22.1399 25.0844 22.5584C24.5085 22.977 24.0746 23.5655 23.8419 24.2436C23.6632 24.7518 23.5884 25.2914 23.622 25.8298V37.1285H17.2969V17.2867H23.622V20.0697C24.184 19.0241 25.0211 18.1562 26.0403 17.5622C27.0595 16.9682 28.2211 16.6707 29.3969 16.7026C33.5494 16.7026 36.6844 19.4856 36.6844 25.4129V37.129L36.6839 37.1279Z" fill="black"/>
</g>
<defs>
<clipPath id="clip0_130_824">
<rect width="43.9994" height="44.5304" fill="white"/>
</clipPath>
</defs>
</svg>
