<?xml version="1.0" encoding="UTF-8"?>
<svg id="Layer_2" xmlns="http://www.w3.org/2000/svg" viewBox="0 0 138.79 101.36">
  <g id="Layer_1-2" data-name="Layer_1">
    <g>
      <path d="M103.45,46.96V0c-11.49,0-21.99,3.51-31.32,9.35,12.26,8.72,22.97,21.67,31.32,37.61"/>
      <path d="M69.4,11.15C59.12,4.05,47.68,0,35.34,0v46.96c6.83-13.68,19.38-26.71,34.06-35.81"/>
      <path d="M56.49,41.85h7.36l-2.2-8.65,5.26,4.97,2.48-15.7,2.48,15.7,5.26-4.97-2.2,8.65h7.36l-3.72,5.11h21.41c-7.57-14.04-17.93-27.06-30.6-35.81-14.68,9.1-27.23,22.13-34.06,35.81h24.87l-3.72-5.11Z"/>
      <polygon points="0 69.06 3.08 69.06 6.5 74.56 9.91 69.06 12.99 69.06 12.99 82.06 10.15 82.06 10.15 73.57 6.5 79.12 6.42 79.12 2.8 73.63 2.8 82.06 0 82.06 0 69.06"/>
      <rect x="17.17" y="69.06" width="2.86" height="12.99"/>
      <polygon points="24.2 69.06 26.84 69.06 32.93 77.06 32.93 69.06 35.75 69.06 35.75 82.06 33.32 82.06 27.02 73.8 27.02 82.06 24.2 82.06 24.2 69.06"/>
      <polygon points="39.79 69.06 42.43 69.06 48.52 77.06 48.52 69.06 51.34 69.06 51.34 82.06 48.91 82.06 42.61 73.8 42.61 82.06 39.79 82.06 39.79 69.06"/>
      <polygon points="55.38 69.06 65.18 69.06 65.18 71.61 58.22 71.61 58.22 74.24 64.35 74.24 64.35 76.78 58.22 76.78 58.22 79.51 65.28 79.51 65.28 82.06 55.38 82.06 55.38 69.06"/>
      <path d="M72.64,68.97h2.64l5.57,13.09h-2.99l-1.19-2.91h-5.49l-1.19,2.91h-2.91l5.57-13.09ZM75.65,76.62l-1.73-4.21-1.73,4.21h3.45Z"/>
      <path d="M82.76,69.06h5.31c3.1,0,4.97,1.84,4.97,4.49v.04c0,3.01-2.34,4.57-5.25,4.57h-2.17v3.9h-2.86v-12.99ZM87.88,75.61c1.43,0,2.26-.85,2.26-1.97v-.04c0-1.28-.89-1.97-2.32-1.97h-2.21v3.97h2.27Z"/>
      <path d="M94.4,75.6v-.04c0-3.69,2.91-6.72,6.92-6.72s6.89,2.99,6.89,6.68v.04c0,3.69-2.91,6.72-6.92,6.72s-6.89-2.99-6.89-6.68M105.22,75.6v-.04c0-2.23-1.63-4.08-3.93-4.08s-3.9,1.82-3.9,4.05v.04c0,2.23,1.63,4.08,3.93,4.08s3.9-1.82,3.9-4.05"/>
      <polygon points="110.75 69.06 113.61 69.06 113.61 79.46 120.08 79.46 120.08 82.06 110.75 82.06 110.75 69.06"/>
      <rect x="122.37" y="69.06" width="2.86" height="12.99"/>
      <path d="M128.51,80.16l1.69-2.02c1.17.96,2.39,1.58,3.88,1.58,1.17,0,1.87-.46,1.87-1.23v-.04c0-.72-.45-1.1-2.62-1.65-2.62-.67-4.31-1.39-4.31-3.97v-.04c0-2.36,1.89-3.92,4.55-3.92,1.89,0,3.51.59,4.83,1.65l-1.48,2.15c-1.15-.8-2.28-1.28-3.38-1.28s-1.67.5-1.67,1.13v.04c0,.85.56,1.13,2.8,1.71,2.63.69,4.12,1.63,4.12,3.9v.04c0,2.58-1.97,4.03-4.77,4.03-1.97,0-3.95-.69-5.51-2.08"/>
      <path d="M26.09,96.35v-.03c0-2.77,2.09-5.04,5.08-5.04,1.84,0,2.94.61,3.84,1.5l-1.36,1.57c-.75-.68-1.52-1.1-2.49-1.1-1.64,0-2.83,1.36-2.83,3.04v.03c0,1.67,1.16,3.06,2.83,3.06,1.11,0,1.8-.45,2.56-1.14l1.36,1.38c-1,1.07-2.12,1.74-4,1.74-2.87,0-5-2.21-5-5.01"/>
      <path d="M38.59,96.35v-.03c0-2.77,2.19-5.04,5.19-5.04s5.17,2.24,5.17,5.01v.03c0,2.77-2.19,5.04-5.19,5.04s-5.17-2.24-5.17-5.01M46.71,96.35v-.03c0-1.67-1.23-3.06-2.95-3.06s-2.92,1.36-2.92,3.04v.03c0,1.67,1.23,3.06,2.95,3.06s2.92-1.36,2.92-3.04"/>
      <polygon points="53.64 91.45 55.78 91.45 55.78 99.25 60.64 99.25 60.64 101.2 53.64 101.2 53.64 91.45"/>
      <polygon points="64.76 91.45 66.9 91.45 66.9 99.25 71.76 99.25 71.76 101.2 64.76 101.2 64.76 91.45"/>
      <polygon points="76.16 91.45 83.51 91.45 83.51 93.36 78.29 93.36 78.29 95.33 82.88 95.33 82.88 97.24 78.29 97.24 78.29 99.29 83.58 99.29 83.58 101.2 76.16 101.2 76.16 91.45"/>
      <path d="M87.84,96.35v-.03c0-2.77,2.16-5.04,5.11-5.04,1.76,0,2.81.47,3.83,1.34l-1.35,1.63c-.75-.63-1.42-.99-2.55-.99-1.56,0-2.8,1.38-2.8,3.04v.03c0,1.78,1.22,3.09,2.95,3.09.78,0,1.48-.19,2.02-.58v-1.39h-2.16v-1.85h4.23v4.23c-1,.85-2.38,1.54-4.16,1.54-3.04,0-5.12-2.13-5.12-5.01"/>
      <polygon points="101.97 91.45 109.32 91.45 109.32 93.36 104.1 93.36 104.1 95.33 108.69 95.33 108.69 97.24 104.1 97.24 104.1 99.29 109.39 99.29 109.39 101.2 101.97 101.2 101.97 91.45"/>
      <path d="M113.05,93.76h0c0-1.34,1.07-2.45,2.42-2.45s2.42,1.1,2.42,2.42h0c0,1.34-1.07,2.45-2.42,2.45s-2.42-1.1-2.42-2.42M117.61,93.75h0c0-1.2-.92-2.17-2.14-2.17s-2.15.99-2.15,2.17h0c0,1.2.92,2.17,2.15,2.17s2.14-.99,2.14-2.17M114.41,92.42h1.23c.63,0,1.07.27,1.07.87,0,.4-.21.68-.53.81l.61.89h-.84l-.52-.77h-.31v.77h-.72v-2.56ZM115.59,93.65c.25,0,.39-.12.39-.31,0-.2-.14-.31-.39-.31h-.46v.61h.46Z"/>
    </g>
  </g>
</svg>