<svg width="511" height="225" viewBox="0 0 511 225" fill="none" xmlns="http://www.w3.org/2000/svg">
<path d="M193.613 31.1313H510.206" stroke="#231F20" stroke-width="12" stroke-miterlimit="10"/>
<path d="M509.934 177.233H396.108V196.12H509.934V177.233Z" fill="#231F20"/>
<path d="M5.72021 0.876465H18.5198L33.7286 27.4035L48.9251 0.876465H61.7247V41.0928H49.7652V19.6392L37.4845 41.0928H29.5527L17.2843 19.6392V41.0928H5.72021V0.876465Z" fill="black"/>
<path d="M70.1755 0.876465H90.1162C93.625 0.876465 96.6643 1.4196 99.2465 2.50586C101.816 3.59212 103.83 5.11041 105.251 7.07309C106.684 9.02342 107.401 11.3317 107.401 13.998C107.401 16.6643 106.672 18.8615 105.226 20.8118C103.781 22.7622 101.767 24.2805 99.1847 25.3791C96.6025 26.4653 93.588 27.0084 90.1162 27.0084H83.0369V41.0928H70.1755V0.876465Z" fill="black"/>
<path d="M113.047 0.876465H125.908V32.0818H142.995V41.0928H113.047V0.876465Z" fill="black"/>
<path d="M154.114 27.5762C155.066 29.0822 156.4 30.3042 158.105 31.2423C159.81 32.1805 161.799 32.6495 164.048 32.6495C165.95 32.6495 167.507 32.3286 168.73 31.6867C169.941 31.0448 170.546 30.2178 170.546 29.2056C170.546 28.3415 170.349 27.6997 169.966 27.2676C169.57 26.8356 169.113 26.527 168.57 26.3418C168.026 26.1567 167.519 26.0209 167.038 25.9468C166.346 25.7987 165.444 25.6506 164.344 25.5271C163.245 25.4037 162.145 25.2556 161.058 25.1074C160.625 25.0334 159.884 24.8976 158.846 24.7124C157.808 24.5273 156.635 24.194 155.337 23.7002C154.04 23.2188 152.78 22.5276 151.569 21.6512C150.358 20.7624 149.358 19.6268 148.579 18.2442C147.801 16.8617 147.406 15.1459 147.406 13.1215C147.406 10.6034 148.184 8.36915 149.741 6.39413C151.297 4.41911 153.447 2.86378 156.178 1.7158C158.908 0.567818 161.984 0 165.407 0C168.829 0 172.054 0.580162 175.093 1.74049C178.12 2.90081 180.64 4.48083 182.629 6.46819L174.179 13.2326C173.4 11.8748 172.264 10.8379 170.769 10.1096C169.274 9.38134 167.618 9.01103 165.802 9.01103C164.109 9.01103 162.763 9.31962 161.737 9.93682C160.724 10.554 160.205 11.344 160.205 12.2698C160.205 13.282 160.613 13.9609 161.441 14.2942C162.269 14.6275 163.022 14.862 163.714 14.9731C164.455 15.0842 165.407 15.22 166.568 15.3681C167.742 15.5163 168.804 15.6644 169.756 15.8248C170.151 15.8989 170.855 16.0347 171.905 16.2199C172.943 16.405 174.129 16.763 175.451 17.2691C176.773 17.7752 178.046 18.4664 179.281 19.3552C180.517 20.244 181.53 21.4043 182.333 22.8485C183.136 24.2927 183.531 26.0703 183.531 28.1687C183.531 30.9091 182.703 33.3161 181.06 35.4022C179.417 37.4883 177.156 39.1177 174.265 40.2781C171.386 41.4384 168.125 42.0309 164.48 42.0309C160.489 42.0309 156.808 41.4137 153.398 40.1917C150 38.9696 147.196 37.2168 144.984 34.9208L154.077 27.6009L154.114 27.5762Z" fill="black"/>
<path d="M4.86792 47.9436H44.5393C53.0147 47.9436 60.7983 49.0175 67.9023 51.1654C75.0063 53.3132 81.122 56.2881 86.2616 60.1147C91.3888 63.9413 95.3671 68.3604 98.1964 73.3967C101.026 78.433 102.434 83.8766 102.434 89.7276C102.434 95.5786 101.026 101.01 98.1964 106.046C95.3671 111.083 91.3888 115.502 86.2616 119.328C81.1343 123.155 75.0187 126.142 67.9023 128.278C60.7983 130.425 53.0024 131.499 44.5393 131.499H4.86792V47.9436Z" fill="#EF7CB1"/>
<path d="M106.029 47.9436H171.115V65.7311H139.709V79.0625H168.434V96.85H138.572V113.699H171.115V131.487H106.029V47.9436Z" fill="#1CAC8C"/>
<path d="M194.898 103.405C196.973 106.528 199.864 109.058 203.583 111.008C207.302 112.959 211.601 113.934 216.506 113.934C220.645 113.934 224.03 113.267 226.674 111.947C229.306 110.626 230.628 108.91 230.628 106.799C230.628 105.009 230.208 103.652 229.355 102.763C228.503 101.862 227.49 101.22 226.316 100.825C225.142 100.442 224.03 100.158 222.993 100.01C221.485 99.7015 219.533 99.4053 217.136 99.1337C214.739 98.8621 212.355 98.5659 210.008 98.2573C209.069 98.0968 207.463 97.8252 205.214 97.4426C202.953 97.0476 200.408 96.344 197.591 95.3318C194.762 94.3196 192.031 92.9 189.4 91.0608C186.768 89.2339 184.606 86.8762 182.901 83.9754C181.208 81.087 180.356 77.5443 180.356 73.335C180.356 68.1135 182.049 63.4476 185.434 59.3494C188.819 55.2512 193.477 52.0171 199.407 49.6348C205.337 47.2647 212.021 46.0674 219.459 46.0674C226.897 46.0674 233.902 47.2771 240.499 49.6965C247.084 52.1159 252.545 55.387 256.882 59.5222L238.523 73.5572C236.83 70.7428 234.359 68.5826 231.11 67.0643C227.86 65.546 224.265 64.7807 220.312 64.7807C216.642 64.7807 213.702 65.4226 211.49 66.7063C209.279 68.0024 208.167 69.6195 208.167 71.5575C208.167 73.6683 209.056 75.0755 210.848 75.7667C212.639 76.4703 214.282 76.9394 215.79 77.1739C217.383 77.4085 219.459 77.68 222.004 77.9886C224.549 78.2972 226.847 78.6182 228.923 78.9268C229.763 79.0872 231.32 79.3588 233.581 79.7415C235.842 80.1365 238.399 80.8524 241.278 81.9017C244.144 82.9509 246.924 84.3951 249.605 86.2343C252.286 88.0736 254.497 90.4806 256.239 93.4802C257.981 96.4798 258.846 100.171 258.846 104.54C258.846 110.231 257.055 115.242 253.484 119.575C249.901 123.908 244.984 127.278 238.733 129.697C232.469 132.117 225.389 133.326 217.482 133.326C208.822 133.326 200.803 132.055 193.415 129.524C186.027 126.994 179.936 123.34 175.13 118.588L194.898 103.38V103.405Z" fill="#F26330"/>
<path d="M297.616 131.487H269.657V47.9436H297.616V131.487Z" fill="#FFCC3F"/>
<path d="M356.054 84.0989H410.687V89.5919C410.687 95.7515 409.365 101.491 406.734 106.799C404.102 112.107 400.383 116.748 395.577 120.723C390.771 124.698 385.101 127.809 378.565 130.03C372.017 132.252 364.851 133.363 357.03 133.363C349.21 133.363 342.415 132.252 335.78 130.03C329.146 127.809 323.302 124.723 318.273 120.785C313.232 116.847 309.304 112.231 306.487 106.91C303.657 101.602 302.249 95.8749 302.249 89.7153C302.249 83.5557 303.657 77.8158 306.487 72.508C309.316 67.2001 313.257 62.5835 318.347 58.6458C323.425 54.7081 329.38 51.6221 336.212 49.4002C343.032 47.1783 350.445 46.0674 358.451 46.0674C367.866 46.0674 376.427 47.561 384.149 50.5729C391.871 53.5725 398.172 57.6089 403.064 62.6822L383.445 77.1863C381.369 73.9152 378.244 71.3106 374.055 69.4097C369.867 67.4963 365.036 66.5459 359.588 66.5459C354.139 66.5459 349.234 67.5334 344.91 69.5207C340.574 71.5081 337.189 74.2484 334.742 77.7171C332.296 81.1857 331.073 85.1851 331.073 89.7153C331.073 94.2455 332.296 98.1339 334.742 101.652C337.189 105.17 340.487 107.91 344.626 109.898C348.765 111.885 353.287 112.885 358.179 112.885C364.011 112.885 369.126 111.786 373.499 109.614C377.873 107.429 381.098 104.343 383.173 100.368H356.067V84.0989H356.054Z" fill="#3858A7"/>
<path d="M415.333 47.9436H436.929L483.099 69.928V47.9436H509.921V131.487H488.177L442.155 109.305V131.487H415.333V47.9436Z" fill="#EF7CB1"/>
<path d="M74.8332 180.801C73.2271 177.801 71.1886 175.382 68.7052 173.555C66.2343 171.728 63.6645 170.271 61.0205 169.222C58.3642 168.173 56.0045 167.457 53.9165 167.062C53.0764 166.902 52.3722 166.766 51.7421 166.655L75.8463 155.298C74.5491 145.386 66.3825 139.412 60.304 136.992C54.2254 134.573 47.7514 133.363 40.8945 133.363C34.0376 133.363 27.8725 134.548 22.3993 136.931C16.9261 139.313 12.6266 142.547 9.50087 146.645C6.3751 150.743 4.80603 155.409 4.80603 160.631C4.80603 164.84 5.58439 168.395 7.15345 171.271C8.72251 174.16 10.7116 176.517 13.1455 178.357C15.5794 180.196 18.0998 181.615 20.7067 182.628C23.3136 183.64 25.661 184.343 27.7366 184.738C29.8246 185.133 31.2948 185.405 32.1596 185.553C34.3341 185.862 36.5209 186.158 38.7324 186.43C40.9439 186.701 42.7477 186.997 44.1438 187.306C45.0952 187.466 46.1206 187.738 47.2078 188.121C48.2951 188.516 49.2217 189.158 50.0124 190.059C50.7907 190.96 51.1861 192.305 51.1861 194.095C51.1861 196.194 49.9753 197.922 47.5414 199.243C45.1075 200.576 41.9817 201.23 38.1641 201.23C33.6422 201.23 29.6763 200.255 26.2417 198.304C22.807 196.354 20.1384 193.824 18.2357 190.701L0 205.908C4.42303 210.661 10.0568 214.314 16.8644 216.845C23.6842 219.375 31.0848 220.647 39.0783 220.647C46.3677 220.647 52.9034 219.437 58.6855 217.03C64.4552 214.611 69.0018 211.241 72.3005 206.908C75.5992 202.575 77.2548 197.564 77.2548 191.873C77.2548 187.504 76.4517 183.813 74.8456 180.813L74.8332 180.801Z" fill="#FFCC3F"/>
<path d="M159.513 220.98H133.716V186.936H105.844V220.98H80.0469V137.437H105.844V167.63H133.716V137.437H159.513V220.98Z" fill="#F26330"/>
<path d="M166.234 163.408C168.841 158.1 172.486 153.484 177.181 149.546C181.876 145.608 187.337 142.522 193.6 140.3C199.852 138.079 206.622 136.968 213.924 136.968C221.226 136.968 227.996 138.079 234.248 140.3C240.499 142.522 245.973 145.608 250.655 149.546C255.35 153.484 258.995 158.1 261.601 163.408C264.208 168.716 265.506 174.444 265.506 180.616C265.506 186.788 264.196 192.503 261.601 197.811C258.995 203.118 255.35 207.735 250.655 211.685C245.96 215.623 240.499 218.709 234.248 220.931C227.996 223.153 221.226 224.264 213.924 224.264C206.622 224.264 199.852 223.153 193.6 220.931C187.349 218.709 181.876 215.623 177.181 211.685C172.486 207.747 168.841 203.131 166.234 197.811C163.628 192.503 162.33 186.775 162.33 180.616C162.33 174.456 163.628 168.716 166.234 163.408Z" fill="#3858A7"/>
<path d="M414.665 152.768C415.814 151.558 416.63 150.669 417.087 150.101C417.544 149.521 417.779 148.966 417.779 148.435C417.779 147.744 417.482 147.151 416.889 146.67C416.296 146.188 415.481 145.942 414.443 145.942C413.467 145.942 412.528 146.238 411.638 146.843C410.749 147.448 409.995 148.238 409.39 149.237L404.164 144.905C405.374 143.214 406.968 141.905 408.945 140.955C410.922 140.004 413.059 139.535 415.369 139.535C417.445 139.535 419.286 139.893 420.904 140.621C422.523 141.35 423.783 142.337 424.71 143.596C425.636 144.855 426.093 146.3 426.093 147.929C426.093 149.077 425.772 150.25 425.117 151.422C424.475 152.607 423.363 153.953 421.806 155.483L414.801 162.31H426.859V168.21H404.51V163.507L414.665 152.78V152.768Z" fill="#231F20"/>
<path d="M432.024 146.46C433.074 144.263 434.544 142.559 436.434 141.337C438.325 140.115 440.524 139.511 443.032 139.511C445.54 139.511 447.739 140.115 449.629 141.337C451.52 142.559 452.99 144.263 454.04 146.46C455.09 148.657 455.622 151.225 455.622 154.175C455.622 157.125 455.09 159.693 454.04 161.89C452.99 164.087 451.52 165.791 449.629 167.013C447.739 168.235 445.54 168.84 443.032 168.84C440.524 168.84 438.325 168.235 436.434 167.013C434.544 165.791 433.074 164.087 432.024 161.89C430.974 159.693 430.442 157.125 430.442 154.175C430.442 151.225 430.974 148.657 432.024 146.46Z" fill="#231F20"/>
<path d="M469.138 152.768C470.287 151.558 471.102 150.669 471.559 150.101C472.017 149.521 472.251 148.966 472.251 148.435C472.251 147.744 471.955 147.151 471.362 146.67C470.769 146.188 469.953 145.942 468.915 145.942C467.939 145.942 467 146.238 466.111 146.843C465.221 147.448 464.468 148.238 463.862 149.237L458.636 144.905C459.847 143.214 461.441 141.905 463.418 140.955C465.394 140.004 467.532 139.535 469.842 139.535C471.918 139.535 473.759 139.893 475.377 140.621C476.996 141.35 478.256 142.337 479.182 143.596C480.109 144.855 480.566 146.3 480.566 147.929C480.566 149.077 480.245 150.25 479.59 151.422C478.948 152.607 477.836 153.953 476.279 155.483L469.274 162.31H481.332V168.21H458.982V163.507L469.138 152.78V152.768Z" fill="#231F20"/>
<path d="M493.563 152.04C494.317 151.237 495.244 150.595 496.368 150.126C497.492 149.657 498.777 149.423 500.21 149.423C502.138 149.423 503.855 149.83 505.35 150.645C506.845 151.459 508.031 152.57 508.896 153.978C509.761 155.385 510.193 156.965 510.193 158.73C510.193 160.656 509.686 162.384 508.686 163.914C507.685 165.445 506.289 166.642 504.51 167.506C502.743 168.37 500.717 168.815 498.431 168.815C496.146 168.815 494.268 168.42 492.612 167.605C490.957 166.803 489.585 165.717 488.51 164.359C487.435 162.989 486.62 161.458 486.089 159.742C485.557 158.026 485.286 156.261 485.286 154.447C485.286 151.472 485.842 148.867 486.966 146.633C488.09 144.399 489.659 142.646 491.673 141.387C493.687 140.128 496.034 139.498 498.715 139.498C501.112 139.498 503.212 139.906 505.029 140.72C506.845 141.535 508.327 142.609 509.476 143.954L504.028 148.608C503.398 147.695 502.632 147.053 501.742 146.658C500.853 146.263 499.951 146.077 499.061 146.077C497.529 146.077 496.281 146.559 495.318 147.522C494.354 148.485 493.749 149.99 493.526 152.015L493.563 152.04Z" fill="#231F20"/>
<path d="M369.879 139.511L356.474 162.705L343.069 139.511H312.12L299.308 161.668L286.509 139.511H256.276L291.451 223.054H316.271L329.355 192.799L341.451 223.054H367.124L402.298 139.511H369.879Z" fill="#1CAC8C"/>
</svg>
