<svg width="251" height="209" viewBox="0 0 251 209" fill="none" xmlns="http://www.w3.org/2000/svg">
<path d="M114.927 0H134.757C135.285 0.370013 139.387 0.462906 140.422 0.574639C154.44 2.08852 168.179 5.4388 180.872 10.6913C215.08 24.9819 239.589 51.4789 247.441 82.6592C248.534 86.8842 249.119 91.164 249.639 95.4602C249.765 96.5083 249.495 99.2366 250.058 99.8082V108.025C250.02 108.072 249.98 108.117 249.945 108.166C249.681 108.524 249.609 112.778 249.499 113.715C248.862 119.205 247.733 124.649 246.125 129.999C235.121 165.391 202.657 193.403 160.56 203.832C153.126 205.739 145.385 206.857 137.665 207.581C135.244 207.808 132.95 207.795 130.528 207.887C130.221 207.899 130.024 207.991 129.78 208.132H119.909C119.099 207.565 115.725 207.897 114.513 207.8C103.413 206.911 92.4521 205.047 81.9454 201.851C44.1804 190.345 15.3429 164.454 4.41414 132.241C2.75707 127.341 1.5372 122.346 0.764471 117.296C0.651525 116.575 0.326953 112.449 0.128519 112.224C0.0886431 112.179 0.0428397 112.137 0 112.094V95.6585C0.533531 95.0898 0.484129 92.4068 0.644266 91.5082C1.51954 86.5971 2.41814 81.8998 3.94526 77.0865C15.166 42.065 47.4468 14.4134 89.1836 4.072C95.3746 2.54644 101.704 1.44026 108.109 0.764301C109.002 0.66576 114.488 0.253125 114.77 0.0957793C114.824 0.0657496 114.874 0.0319264 114.927 0Z" fill="#F26330"/>
</svg>
