<svg width="251" height="209" viewBox="0 0 251 209" fill="none" xmlns="http://www.w3.org/2000/svg">
<path d="M149.542 0H159.876C160.551 0.43869 162.731 0.530654 163.646 0.7879C176.666 4.45254 180.656 18.2121 186.835 28.3643C190.319 34.0911 193.98 37.9919 199.096 42.3038C211.603 52.8445 227.849 47.8849 239.551 59.7123C244.57 64.8127 248.602 71.5955 249.627 78.6596C249.721 79.3059 249.715 80.6128 250.058 81.0485V84.9289C249.735 85.3588 249.725 86.8261 249.595 87.4665C247.837 95.9695 244.137 103.153 239.769 110.546C237.948 113.627 236.832 115.905 235.353 119.096C231.923 126.497 230.457 133.169 231.432 141.29C233.265 156.85 242.51 173.208 231.507 187.68C227.795 192.563 222.308 196.038 216.287 197.478C203.322 200.581 191.474 192.477 180.295 187.571C172.26 184.044 162.569 184.76 153.832 185.907C138.888 187.445 128.45 193.907 116.072 201.146C111.189 204.001 105.185 206.879 99.4801 207.684C98.9876 207.755 97.5252 207.911 97.1902 208.164H90.2093C89.7645 207.825 87.2293 207.658 86.4511 207.45C82.9635 206.521 78.7728 204.743 76.1702 202.268C72.0939 198.395 70.0168 192.679 67.5 187.8C66.8329 186.507 62.9347 181.263 62.1838 180.016C53.4592 165.438 40.0271 168.618 24.8647 165.123C12.868 162.359 5.6252 156.606 1.80319 144.99C1.37752 143.636 0.964296 142.29 0.629145 140.913C0.460662 140.221 0.369002 138.608 0 138.102V128.75C0.376306 128.29 0.60566 125.723 0.813361 124.951C3.03117 116.719 7.38193 109.186 12.9259 102.648C18.22 96.4039 24.912 90.217 25.5917 81.6207C25.8827 76.9578 25.0871 71.9534 24.2226 67.3973C22.4669 58.1439 20.1265 49.4006 20.3222 39.9303C20.4261 34.898 20.5365 31.8984 22.1352 27.0193C25.2095 17.6374 31.0467 9.50019 40.1038 4.78716C59.321 -5.61061 77.717 8.75121 96.5007 12.3842C99.7534 13.0133 102.627 12.9792 105.94 12.6456C119.635 11.2661 131.653 3.81684 144.968 0.912864C145.905 0.708584 148.907 0.371514 149.542 0Z" fill="#EF7CB1"/>
</svg>
