<svg width="244" height="195" viewBox="0 0 244 195" fill="none" xmlns="http://www.w3.org/2000/svg">
<path d="M0 0H243.188V5.28366C242.261 7.15543 241.984 8.88612 240.589 10.8452C237.11 15.7319 230.575 20.7156 232.343 28.0625C233.481 32.7921 238.585 37.0843 241.122 41.0096C242.014 42.3878 242.942 46.2376 243.188 46.5956V50.3742C242.333 52.1122 242.428 53.8983 241.055 55.975C237.469 61.3989 230.618 67.9058 232.27 75.577C233.39 80.7738 238.227 84.1835 240.744 88.5385C241.376 89.6484 241.875 90.8495 242.222 92.1096C242.444 92.9221 242.927 95.729 243.188 96.1282V100.429C242.84 101.061 242.541 102.587 242.349 103.355C240.64 110.234 233.729 112.587 232.323 119.636C231.408 124.222 233.434 128.664 236.105 131.93C239.781 136.331 242.863 138.491 242.807 145.101C242.729 154.366 234.423 156.509 232.378 164.659C230.9 170.558 235.355 175.023 238.388 179.178C239.392 180.572 240.331 182.024 241.201 183.531C242.511 185.798 242.767 189.533 243.188 190.14V194.115H0V187.694C0.643654 186.568 1.31654 183.92 2.37916 182.121C4.84307 177.828 9.5029 174.016 10.5604 168.887C11.9541 162.126 5.68369 156.614 2.15385 152.257C1.0353 150.876 0.780053 148.823 0 147.399V141.905C0.712536 140.576 1.07235 138.645 2.06882 137.384C6.79411 131.405 14.0064 125.318 9.25339 116.316C7.4349 112.872 4.78589 111.054 2.73519 108.005C1.93841 106.802 1.26299 105.503 0.721476 104.132C0.454788 103.45 0.34593 102.881 0 102.232V93.6872C0.870506 92.1622 1.34586 89.8681 2.39482 88.0841C5.9561 82.0272 12.5559 78.6518 10.3271 70.0459C8.87687 64.4463 5.44537 61.4261 2.39193 56.9619C1.60534 55.8042 0.715189 53.5198 0 52.154V44.774C0.687685 43.5444 1.10753 41.6066 2.20976 40.1158C5.03543 36.2428 9.32728 32.8113 10.581 27.7384C11.645 23.4327 9.10133 19.4375 6.75442 16.4472C4.35851 13.3946 1.84237 10.4963 0 7.01768V0Z" fill="#FFCC3F"/>
</svg>
